<?xml version="1.0" encoding="UTF-8"?>
<svg id="Layer_1" data-name="Layer 1" xmlns="http://www.w3.org/2000/svg" viewBox="0 0 1057.86 458.86">
  <defs>
    <style>
      .cls-1 {
        fill: #fdba28;
      }

      .cls-2 {
        letter-spacing: .05em;
      }

      .cls-2, .cls-3, .cls-4 {
        font-family: Arial-Black, Arial;
        font-size: 44px;
      }

      .cls-5, .cls-6 {
        fill: #f26522;
      }

      .cls-3 {
        letter-spacing: -.02em;
      }

      .cls-7 {
        font-size: 54.84px;
      }

      .cls-7, .cls-8 {
        font-family: Arial-BoldMT, Arial;
      }

      .cls-9 {
        fill: #99ca3c;
      }

      .cls-10 {
        fill: #c75d30;
      }

      .cls-8 {
        font-size: 43px;
      }

      .cls-6 {
        font-family: MonotypeCorsiva, 'Monotype Corsiva';
        font-size: 39.79px;
      }

      .cls-11 {
        fill: #ffcd33;
      }

      .cls-12 {
        fill: #26246d;
      }

      .cls-13 {
        fill: none;
        stroke: #99ca3c;
        stroke-miterlimit: 10;
        stroke-width: 3.5px;
      }
    </style>
  </defs>
  <g>
    <g>
      <g>
        <path class="cls-9" d="M705.95,318.13h14.83l17.7,54.49h-14.01l-3.93-11.39h-17.13l-3.69,11.39h-11.06l17.29-54.49Zm.24,33.27h11.64l-5.9-18.52-5.74,18.52Z"/>
        <path class="cls-5" d="M743.24,318.29h12.78v54.33h-12.78v-54.33Z"/>
        <path class="cls-12" d="M793.14,339.02l-.16-.74v-.9l-.33-1.64-.74-2.13c-.49-1.64-1.47-2.95-2.95-3.93-1.37-1.04-2.95-1.56-4.75-1.56-3.17,0-5.61,1.5-7.33,4.51-1.72,3.01-2.58,7.27-2.58,12.78,0,11.25,3.32,16.88,9.95,16.88,2.5,0,4.54-.79,6.12-2.38,.44-.38,.9-.93,1.39-1.64,.82-1.15,1.22-2.08,1.22-2.79l.25-1.39,.49-1.07h12.21l-.16,2.05-1.23,4.67c-.49,1.86-1.71,3.82-3.65,5.9-1.94,2.08-4.23,3.73-6.89,4.96-2.65,1.23-5.91,1.84-9.79,1.84-7.21,0-12.98-2.46-17.29-7.37-4.32-4.92-6.47-11.64-6.47-20.16,0-8.08,2.18-14.6,6.56-19.54,4.37-4.94,10.05-7.41,17.04-7.41,6.5,0,11.77,1.94,15.82,5.82,4.04,3.88,6.06,8.96,6.06,15.24h-12.78Z"/>
        <path class="cls-12" d="M834.52,318.13c7.21,0,13.02,2.48,17.41,7.43,4.4,4.95,6.6,11.56,6.6,19.82s-2.14,14.91-6.43,19.78c-4.29,4.87-10.18,7.3-17.66,7.3s-13.21-2.48-17.66-7.43c-4.45-4.95-6.68-11.67-6.68-20.15,0-7.93,2.22-14.38,6.68-19.33,4.45-4.95,10.37-7.43,17.74-7.43Zm-10.41,26.75v.41c0,5.59,.86,9.82,2.58,12.69,1.72,2.88,4.25,4.31,7.58,4.31,6.83,0,10.24-5.75,10.24-17.25s-3.33-16.67-10-16.67c-3.28,0-5.83,1.41-7.66,4.23-1.83,2.82-2.74,6.91-2.74,12.28Z"/>
        <path class="cls-12" d="M863.2,318.13h22.29c6.99,0,12.92,2.57,17.78,7.71,4.86,5.14,7.29,11.52,7.29,19.12s-2.36,14.39-7.09,19.7c-4.73,5.31-10.59,7.96-17.58,7.96h-22.7v-54.49Zm13.36,44.41h6.23c4.1,0,7.37-1.57,9.83-4.72,2.46-3.15,3.69-7.38,3.69-12.69s-1.2-9.42-3.61-12.48c-2.4-3.07-5.65-4.6-9.75-4.6h-6.39v34.5Z"/>
      </g>
      <g>
        <ellipse class="cls-13" cx="799.61" cy="196.26" rx="36.38" ry="36.96"/>
        <ellipse class="cls-13" cx="799.61" cy="196.26" rx="43.41" ry="44.36"/>
        <ellipse class="cls-13" cx="799.61" cy="196.26" rx="50.98" ry="51.33"/>
        <ellipse class="cls-13" cx="799.61" cy="196.26" rx="57.75" ry="58.99"/>
        <ellipse class="cls-13" cx="799.61" cy="196.26" rx="65.72" ry="66.12"/>
        <ellipse class="cls-13" cx="799.61" cy="196.26" rx="72.89" ry="73.51"/>
        <ellipse class="cls-13" cx="799.61" cy="196.26" rx="81.03" ry="79.38"/>
        <ellipse class="cls-13" cx="799.61" cy="196.26" rx="86.54" ry="86.43"/>
        <ellipse class="cls-13" cx="799.61" cy="196.26" rx="93.23" ry="94.9"/>
        <ellipse class="cls-13" cx="799.61" cy="196.26" rx="101.49" ry="101.68"/>
        <ellipse class="cls-13" cx="799.61" cy="196.26" rx="108.96" ry="110.03"/>
      </g>
    </g>
    <g>
      <g>
        <polygon class="cls-10" points="791.99 221.04 793.08 220.84 792.41 217.58 792.34 217.21 792.27 217.36 791.54 218.83 791.99 221.04"/>
        <path class="cls-10" d="M795.32,223.96l-.48-3.41c-.02-.13-.41-.18-.88-.11l-2.67,.38c-.47,.07-.83,.22-.81,.35l.48,3.41,4.36-.61Z"/>
      </g>
      <g>
        <polygon class="cls-10" points="815.75 200.51 814.13 200.99 815.7 226.72 820.1 224.65 815.75 200.51"/>
        <polygon class="cls-10" points="825.85 220.56 828.82 217.27 817.99 199.84 816.37 200.32 825.85 220.56"/>
      </g>
      <polygon class="cls-10" points="826.77 203.29 802.51 201.7 803.08 192.26 826.61 193.83 826.77 203.29"/>
      <path class="cls-10" d="M803.75,205.94c-.05,1.01-.91,1.79-1.92,1.74h0c-1.01-.05-1.79-.91-1.74-1.92l.79-16.36c.05-1.01,.91-1.79,1.91-1.74h0c1.01,.05,1.79,.91,1.74,1.91l-.79,16.36Z"/>
      <g>
        <path class="cls-11" d="M818.56,196.88c-3-.62-5.94,1.31-6.56,4.31-.62,3,1.31,5.94,4.31,6.56,3,.62,5.94-1.31,6.56-4.31,.62-3-1.31-5.94-4.31-6.57Z"/>
        <path class="cls-10" d="M818.01,199.52c-1.54-.32-3.06,.67-3.38,2.22-.32,1.55,.67,3.06,2.22,3.38,1.55,.32,3.06-.68,3.38-2.22,.32-1.55-.67-3.06-2.22-3.38Z"/>
        <path class="cls-1" d="M817.78,200.67c-.91-.19-1.8,.4-1.99,1.31-.19,.91,.4,1.8,1.31,1.99,.91,.19,1.8-.4,1.99-1.3,.18-.91-.4-1.8-1.31-1.99Z"/>
      </g>
      <path class="cls-10" d="M777.87,208.63c1.67,4.95,4.17,9.11,7.13,13.39,.74,1.06,2.32,2.6,3.07,3.21l.43-.97,.03-.05,1.4-2.5,.05-.09,.81-1.55,.79-1.51,.08-.16,.17-.33,1.96-3.13,1.84-3.15,4.54-7.18,.67-12.92-6.85-11.26-1.85-3.05-.1-.17-1.89-3.1-.29-.48-1.69-2.79-.11-.17-1.59-2.61-.04-.07-.59-.97c-9.55,10.95-12.92,27.02-7.99,41.62Zm7.36-17.93c-.57-.06-1.09-.28-1.51-.6-.84-.63-1.31-1.67-1.16-2.77,.18-1.27,1.14-2.27,2.34-2.58,.37-.09,.76-.13,1.16-.08,.8,.09,1.49,.47,1.96,1.02,.05,.05,.1,.11,.14,.17,.03,.04,.06,.08,.08,.12,.09,.13,.16,.26,.23,.4,.01,.02,.02,.05,.03,.08,.06,.12,.11,.26,.15,.39,.02,.11,.05,.21,.07,.32,0,.06,.02,.11,.02,.17,.01,.11,.01,.23,.01,.34,0,.12-.01,.24-.03,.35-.02,.18-.06,.36-.12,.53-.02,.06-.04,.12-.06,.18-.02,.05-.04,.1-.06,.14-.07,.15-.14,.29-.23,.42-.03,.05-.07,.11-.11,.16-.05,.06-.1,.13-.16,.18-.04,.04-.08,.09-.12,.13-.21,.21-.44,.39-.7,.53,0,0,0,0,0,0-.06,.04-.13,.07-.2,.11-.52,.24-1.11,.35-1.72,.28Zm-.66,13.46c-.08,0-.16-.01-.24-.02-2.81-.33-4.23-1.87-3.84-4.62,.29-2.1,1.21-3.65,2.88-4.13,.52-.15,1.11-.19,1.79-.12,.48,.05,.98,.19,1.45,.38,.06,.03,.12,.05,.18,.08,.71,.31,1.35,.74,1.8,1.24-.68,1.09-1.12,1.58-1.31,2.92-.04,.27-.04,.53-.02,.77h0s0,.02,0,.03c.02,.26,.07,.51,.14,.75,.18,.67,.48,1.29,.68,1.99,.03,.09-.02,.17-.14,.25-.05,.03-.1,.06-.17,.09-.66,.29-2.23,.45-3.22,.39Zm-1.23,8.33c-.14-.41-.19-.82-.18-1.22,.05-1.28,.82-2.43,2.05-2.85,.24-.08,.48-.12,.72-.14,1.38-.1,2.74,.8,3.23,2.25,.38,1.13,.14,2.31-.53,3.13-.34,.42-.8,.75-1.34,.93-.91,.31-1.87,.14-2.64-.37-.59-.39-1.07-.99-1.32-1.73Z"/>
    </g>
  </g>
  <g>
    <text class="cls-6" transform="translate(145.72 296.39)"><tspan x="0" y="0">Inspired by wonders</tspan></text>
    <text class="cls-12" transform="translate(145.72 195)"><tspan class="cls-4" x="0" y="0">Albe</tspan><tspan class="cls-2" x="107.57" y="0">r</tspan><tspan class="cls-4" x="129.29" y="0">tine Institute </tspan><tspan class="cls-3" x="456.8" y="0">f</tspan><tspan class="cls-4" x="473.17" y="0">or</tspan><tspan class="cls-7" x="522.05" y="0"> </tspan><tspan class="cls-8"><tspan x="0" y="51.6">Community Development</tspan></tspan></text>
  </g>
</svg>