<?xml version="1.0" encoding="UTF-8"?>
<svg id="Layer_1" data-name="Layer 1" xmlns="http://www.w3.org/2000/svg" viewBox="0 0 1057.86 458.86">
  <g>
    <text transform="translate(116.26 300.59)" style="fill: #f06726; font-family: MonotypeCorsiva, &apos;Monotype Corsiva&apos;; font-size: 39.79px;"><tspan x="0" y="0">Inspired by wonders</tspan></text>
    <text transform="translate(116.26 179.45)" style="fill: #26246d;"><tspan x="0" y="0" style="font-family: Arial-Black, Arial; font-size: 44px;">Albe</tspan><tspan x="107.57" y="0" style="font-family: Arial-Black, Arial; font-size: 44px; letter-spacing: .05em;">r</tspan><tspan x="129.29" y="0" style="font-family: Arial-Black, Arial; font-size: 44px;">tine Institute </tspan><tspan x="456.8" y="0" style="font-family: Arial-Black, Arial; font-size: 44px; letter-spacing: -.02em;">f</tspan><tspan x="473.17" y="0" style="font-family: Arial-Black, Arial; font-size: 44px;">or</tspan><tspan x="522.05" y="0" style="font-family: Arial-BoldMT, Arial; font-size: 54.84px;"> </tspan><tspan style="font-family: Arial-BoldMT, Arial; font-size: 43px;"><tspan x="0" y="51.6">Community Development</tspan></tspan></text>
  </g>
  <g>
    <path d="M698.06,329.56h17.65l21.07,64.86h-16.68l-4.68-13.56h-20.38l-4.39,13.56h-13.17l20.58-64.86Zm.29,39.6h13.85l-7.02-22.04-6.83,22.04Z" style="fill: #99ca3c;"/>
    <path d="M742.43,329.75h15.21v64.67h-15.21v-64.67Z" style="fill: #f06726;"/>
    <path d="M851.08,329.56c8.58,0,15.49,2.95,20.73,8.84,5.23,5.89,7.85,13.76,7.85,23.59s-2.55,17.75-7.66,23.54c-5.11,5.8-12.11,8.69-21.02,8.69s-15.72-2.95-21.02-8.84c-5.3-5.89-7.95-13.89-7.95-23.98,0-9.44,2.65-17.11,7.95-23,5.3-5.89,12.34-8.84,21.12-8.84Zm-12.39,31.84v.49c0,6.65,1.02,11.68,3.07,15.1,2.05,3.42,5.05,5.13,9.02,5.13,8.13,0,12.19-6.84,12.19-20.53s-3.97-19.85-11.9-19.85c-3.9,0-6.94,1.68-9.12,5.03-2.18,3.36-3.27,8.23-3.27,14.62Z" style="fill: #26246d;"/>
    <path d="M885.22,329.56h26.53c8.32,0,15.38,3.06,21.17,9.18,5.79,6.12,8.68,13.71,8.68,22.76s-2.81,17.13-8.44,23.44c-5.63,6.32-12.6,9.48-20.92,9.48h-27.02v-64.86Zm15.9,52.86h7.41c4.88,0,8.78-1.87,11.7-5.62,2.93-3.75,4.39-8.78,4.39-15.1s-1.43-11.21-4.29-14.86c-2.86-3.65-6.73-5.48-11.61-5.48h-7.61v41.06Z" style="fill: #26246d;"/>
    <path d="M801.83,354.43l-.2-.88v-1.07l-.39-1.95-.88-2.54c-.58-1.95-1.75-3.51-3.51-4.68-1.63-1.23-3.51-1.85-5.66-1.85-3.77,0-6.68,1.79-8.73,5.36-2.05,3.58-3.07,8.65-3.07,15.22,0,13.4,3.95,20.09,11.85,20.09,2.98,0,5.41-.94,7.28-2.83,.52-.45,1.07-1.1,1.65-1.95,.97-1.37,1.46-2.47,1.46-3.32l.3-1.66,.59-1.27h14.53l-.19,2.44-1.46,5.56c-.59,2.21-2.03,4.55-4.34,7.02-2.31,2.47-5.04,4.44-8.19,5.9-3.15,1.46-7.04,2.19-11.65,2.19-8.58,0-15.44-2.93-20.58-8.78-5.14-5.85-7.71-13.85-7.71-23.99,0-9.62,2.6-17.37,7.8-23.26,5.2-5.88,11.96-8.83,20.29-8.83,7.74,0,14.01,2.31,18.82,6.92,4.81,4.62,7.22,10.66,7.22,18.14h-15.21Z" style="fill: #26246d;"/>
  </g>
  <g>
    <polygon points="824.19 194.97 822.35 195.51 824.39 225.36 829.44 223.61 824.19 194.97" style="fill: #f06726;"/>
    <polygon points="836.23 218.57 839.34 214.68 826.72 194.21 824.89 194.76 836.23 218.57" style="fill: #f06726;"/>
  </g>
  <g>
    <g>
      <polygon points="796.98 218.22 798.22 218.04 797.6 214.32 797.53 213.89 797.44 214.06 796.55 215.7 796.98 218.22" style="fill: #f06726;"/>
      <path d="M800.63,221.66l-.41-3.88c-.02-.15-.46-.22-.99-.16l-3.04,.32c-.53,.06-.95,.22-.93,.36l.41,3.88,4.96-.52Z" style="fill: #f06726;"/>
    </g>
    <polygon points="836.68 198.12 809.17 196.32 809.81 185.61 836.51 187.39 836.68 198.12" style="fill: #f06726;"/>
    <path d="M810.58,201.13c-.06,1.14-1.03,2.03-2.17,1.97h0c-1.14-.06-2.03-1.03-1.97-2.17l.9-18.55c.06-1.14,1.03-2.02,2.17-1.97h0c1.15,.05,2.03,1.03,1.97,2.17l-.89,18.55Z" style="fill: #f06726;"/>
    <path d="M827.38,190.85c-3.41-.7-6.74,1.49-7.44,4.89-.71,3.41,1.48,6.74,4.89,7.45,3.41,.7,6.74-1.48,7.44-4.89,.71-3.41-1.48-6.74-4.89-7.45Z" style="fill: #ffcd33;"/>
    <path d="M826.76,193.84c-1.75-.36-3.47,.76-3.83,2.52-.36,1.75,.76,3.47,2.52,3.84,1.75,.36,3.47-.77,3.83-2.52,.36-1.76-.76-3.47-2.52-3.84Z" style="fill: #f06726;"/>
    <path d="M826.49,195.15c-1.03-.21-2.04,.45-2.26,1.48-.21,1.03,.45,2.04,1.48,2.25,1.03,.21,2.04-.45,2.26-1.48,.21-1.03-.45-2.04-1.48-2.26Z" style="fill: #fdba28;"/>
    <path d="M781.23,204.18c1.89,5.61,4.73,10.34,8.08,15.19,.84,1.21,2.63,2.95,3.48,3.64l.49-1.1,.03-.06,1.59-2.83,.06-.11,.92-1.76,.9-1.72,.09-.18,.19-.37,2.22-3.55,2.09-3.57,5.14-8.14,.77-14.66-7.76-12.77-2.1-3.46-.11-.19-2.14-3.52-.33-.55-1.92-3.16-.12-.2-1.8-2.96-.05-.08-.67-1.1c-10.83,12.42-14.65,30.64-9.06,47.21Zm8.35-20.34c-.65-.07-1.23-.32-1.71-.68-.95-.72-1.48-1.89-1.32-3.14,.2-1.44,1.29-2.57,2.65-2.93,.42-.11,.87-.14,1.32-.09,.91,.1,1.69,.54,2.22,1.16,.06,.06,.11,.13,.16,.2,.03,.04,.06,.09,.09,.13,.1,.14,.19,.29,.26,.45,.01,.02,.02,.05,.04,.09,.07,.14,.12,.29,.17,.45,.03,.12,.06,.24,.08,.37,0,.07,.02,.13,.03,.19,.01,.13,.01,.26,.01,.39,0,.14-.02,.27-.03,.4-.03,.2-.07,.41-.14,.6-.02,.06-.04,.13-.07,.2-.02,.06-.04,.11-.07,.16-.07,.17-.16,.33-.26,.48-.04,.06-.08,.12-.12,.18-.06,.07-.12,.15-.18,.21-.05,.05-.09,.1-.14,.14-.23,.24-.5,.44-.79,.6,0,0,0,0,0,0-.07,.04-.15,.08-.23,.12-.59,.28-1.26,.4-1.95,.32Zm-.75,15.27c-.09,0-.18-.02-.27-.02-3.19-.37-4.79-2.12-4.36-5.24,.33-2.38,1.37-4.14,3.27-4.68,.59-.17,1.26-.22,2.03-.13,.54,.06,1.11,.21,1.64,.43,.07,.03,.14,.06,.21,.09,.8,.35,1.53,.84,2.05,1.41-.77,1.24-1.27,1.79-1.48,3.31-.04,.3-.05,.6-.02,.87h0s0,.03,0,.04c.03,.29,.08,.58,.16,.85,.21,.76,.55,1.46,.78,2.25,.03,.1-.03,.2-.16,.28-.05,.03-.11,.07-.19,.1-.75,.33-2.53,.51-3.65,.44Zm-1.4,9.44c-.16-.46-.22-.93-.2-1.38,.05-1.45,.93-2.76,2.32-3.23,.27-.09,.54-.14,.82-.16,1.57-.11,3.11,.91,3.66,2.55,.43,1.28,.16,2.62-.6,3.55-.39,.48-.9,.85-1.52,1.05-1.03,.35-2.12,.16-2.99-.42-.67-.44-1.21-1.12-1.49-1.96Z" style="fill: #f06726;"/>
  </g>
  <ellipse cx="809.54" cy="189.37" rx="45.48" ry="45.75" style="fill: none; stroke: #99ca3c; stroke-miterlimit: 10; stroke-width: 15px;"/>
  <ellipse cx="809.54" cy="189.37" rx="71.34" ry="72.62" style="fill: none; stroke: #99ca3c; stroke-miterlimit: 10; stroke-width: 15px;"/>
  <ellipse cx="809.54" cy="189.37" rx="96.47" ry="97.41" style="fill: none; stroke: #99ca3c; stroke-miterlimit: 10; stroke-width: 15px;"/>
  <ellipse cx="809.54" cy="189.37" rx="125.07" ry="124.93" style="fill: none; stroke: #99ca3c; stroke-miterlimit: 10; stroke-width: 15px;"/>
</svg>