<svg height="301.37747" viewBox="0 0 285.22415 301.37747" width="285.22415" xmlns="http://www.w3.org/2000/svg"><path d="m125.23695 7.1215842-1.56.09093-4.68 6.5220588-4.68 6.522058-.14797-5.64c-.0814-3.102-.16239-5.9909988-.18-6.4199988l-.032-.78h-1.69493-1.69494l.14664 8.5799988c.0807 4.719.20026 8.931.26581 9.36l.11917.78h1.6338 1.6338l4.65533-6.480996 4.65532-6.480994.15626 1.260994c.0859.693547.16695 3.555996.18 6.360996l.0237 5.1h1.79358 1.79358l-.11556-3.78c-.0636-2.079-.18076-6.345-.26044-9.48-.0797-3.1349998-.21378-5.6788458-.29801-5.6529928-.0842.02585-.85515.08793-1.71315.137943zm9.24659.589157c-.0566.168242-.90097 4.3215088-1.87644 9.2294848-1.74025 8.755925-1.76415 8.925809-1.27186 9.041547 4.30668 1.012512 8.38625 1.637323 10.10171 1.547138 4.36027-.229224 7.60678-3.089801 8.52017-7.507301.84153-4.070006-1.22374-8.243465-4.99256-10.0888768-.83446-.408593-2.84384-.962784-5.31468-1.465798-2.18511-.444844-4.2183-.865797-4.5182-.93545-.32561-.07562-.58671-.0034-.64814.179256zm5.72933 4.0209378c1.26981.261276 2.6587.651605 3.08642.867398 2.66712 1.345642 3.85001 4.314694 2.95103 7.407072-.31514 1.084044-.68141 1.668156-1.64924 2.630139-1.31504 1.307097-2.48524 1.820201-4.15197 1.820534-1.15346.000231-4.93115-.714067-5.23656-.990146-.31687-.286431 2.03314-12.210041 2.40646-12.210041.15681 0 1.32404.21377 2.59386.475044zm-42.632675-1.8146138c-3.52922.8212038-6.48313 1.5594628-6.56424 1.6405758-.14502.14502 3.84665 17.884644 4.07588 18.113877.0989.09886 13.102795-2.764416 13.287985-2.925825.0346-.03014-.0845-.692506-.26453-1.471928-.21429-.927499-.44331-1.40802-.66287-1.390764-.18451.0145-2.41141.494556-4.94868 1.066788-2.537265.572232-4.659125.992367-4.715255.933634-.18998-.198809-.9678-4.290516-.83992-4.418395.0698-.06981 1.99959-.559589 4.288385-1.088393 2.28881-.528804 4.21577-1.015766 4.28214-1.082138.0664-.06637-.033-.754361-.22073-1.528868l-.34141-1.40819-4.39004 1.010438c-2.414515.555742-4.437215.93409-4.494895.840771-.16842-.272513-1.0946-4.372474-1.00743-4.459644.0436-.04358 2.2332-.572014 4.86581-1.174291 2.632605-.602276 4.911335-1.137917 5.063845-1.190316.36499-.125398-.33955-3.0179828-.72683-2.9840928-.14875.01301-3.158.695561-6.687215 1.516761zm59.152175 4.0408128c-1.79269 4.095399-6.82553 16.285488-6.7496 16.348265.14849.12277 11.81005 5.003184 12.23679 5.121151.27272.07539.53121-.239654.9-1.096937.28456-.661488.51739-1.298445.51739-1.41546 0-.117014-2.052-1.066896-4.56-2.11085s-4.56-2.023886-4.56-2.177626c0-.321009 1.4091-3.726837 1.64403-3.973651.0858-.09013 1.9268.584875 4.09115 1.5 2.16436.915125 4.06689 1.663865 4.22786 1.663865.3367 0 1.34406-2.435402 1.11136-2.686826-.0849-.09175-1.8824-.883896-3.9944-1.760316-2.112-.876418-3.91383-1.665346-4.00406-1.753174-.13526-.13165 1.32088-4.025191 1.62077-4.33375.0503-.05173 2.19878.785266 4.77443 1.86 2.57566 1.074737 4.76533 1.953915 4.86594 1.953732.18056-.00024 1.34846-2.650476 1.2129-2.752243-.0385-.02889-2.58865-1.104096-5.66701-2.389341-3.07837-1.285246-5.96257-2.489537-6.40932-2.676204l-.81229-.339394zm-80.853135 3.033286-1.47772.643533 3.44862 8.510969c1.89674 4.681032 3.4836 8.603626 3.52635 8.716872.1001.265123 11.72032-4.418366 11.85898-4.779722.0575-.149777-.14368-.823267-.447-1.496647l-.55151-1.224324-4.08 1.661863c-2.244.914025-4.2042 1.664352-4.356 1.667395-.26757.0054-2.004-3.822722-2.004-4.417961 0-.162533 1.728-.979961 3.84-1.816507s3.84-1.59637 3.84-1.688494c0-.344452-1.03038-2.631506-1.18557-2.631506-.0889 0-1.76936.648-3.73443 1.44s-3.7028 1.44-3.86163 1.44c-.15882 0-.88125-1.480771-1.60538-3.290604-.72414-1.80983-1.4103-3.310356-1.5248-3.334502-.1145-.02414-.87317.245692-1.68591.599635zm-12.6275 6.455697c-3.25638 1.941377-5.92386 3.620038-5.92773 3.730359-.0106.300785 9.44561 15.999415 9.63735 15.999415.13921 0 9.47656-5.536073 11.18974-6.634346l.55413-.355244-.64604-1.125204c-.35532-.618864-.73033-1.218451-.83335-1.33242-.10302-.113966-2.09331.939034-4.42287 2.34-2.32956 1.400969-4.30991 2.54456-4.40079 2.541315-.16997-.0061-2.51445-3.865987-2.39296-3.939739.0373-.02261 1.76874-1.047101 3.84774-2.276633 2.079-1.22953 3.77795-2.357508 3.77544-2.50662-.002-.14911-.33214-.79284-.73252-1.430511-.68812-1.095962-.75681-1.140969-1.25543-.822535-3.68647 2.354278-7.20457 4.280854-7.42135 4.064071-.13881-.138808-.71719-1.036308-1.28529-1.994443-.93585-1.578353-.99476-1.767708-.62688-2.014939.22332-.150082 2.18803-1.334004 4.36603-2.630938 2.178-1.296933 4.00936-2.399268 4.0697-2.449632.13396-.111825-.97052-2.183174-1.32196-2.479224-.15808-.133161-2.46287 1.1054-6.17296 3.317268zm106.985215 5.48186c-2.772 4.168908-5.06671 7.703152-5.09935 7.853875-.0618.285449 6.21504 4.509557 8.09935 5.450573 1.6338.815916 4.19693.922046 5.62084.23274 1.85025-.895688 3.47106-3.194794 3.84948-5.46043.11758-.704016.0387-1.433016-.25976-2.4-.23576-.763865-.43358-1.476859-.4396-1.584432-.006-.107573 1.49016-.824995 3.32486-1.594272l3.33581-1.398684-1.73298-1.152355-1.73298-1.152353-2.74548 1.366625c-1.51001.751646-2.83732 1.366627-2.94958 1.366627-.15673 0-3.60164-2.151343-4.08561-2.551466-.0523-.0432.56874-1.085151 1.38-2.315448.81125-1.230296 1.475-2.297254 1.475-2.371016 0-.171271-2.57144-1.88411-2.81631-1.875945-.10103.0034-2.45169 3.41705-5.22369 7.585961zm5.93417 3.270081c1.15179.782266 2.31279 1.776041 2.58 2.208394.63537 1.028054.61607 2.352348-.0516 3.54029-.6509 1.15812-1.48932 1.629149-2.89985 1.629149-.90266 0-1.42409-.236909-3.49192-1.586556-1.33694-.872606-2.43081-1.683382-2.43081-1.801728 0-.497455 3.68304-5.709449 3.93292-5.5656.14689.08456 1.20945.793788 2.36125 1.576051zm-62.57417 1.516495c-.396.05246-1.854.214853-3.24.360879-15.909105 1.676145-31.870955 8.35386-45.047195 18.845712-3.15491 2.512159-10.51949 9.905786-13.12298 13.174747-10.76689 13.518953-17.0617 29.272758-18.65214 46.679995-.36217 3.96394-.15335 14.07065.37191 18 1.94458 14.54698 7.27231 28.00986 15.63283 39.50336 16.57781 22.79008 42.71328 36.09664 70.897575 36.09664 30.83475 0 59.12427-15.97609 75.0086-42.36 6.22182-10.33445 10.0583-21.65345 11.67314-34.44.49699-3.93518.42764-16.09231-.11499-20.16-2.16952-16.263117-8.172-30.461366-18.26329-43.199995-3.04857-3.848318-9.73514-10.534894-13.58346-13.583458-12.77767-10.122228-26.86829-16.099245-43.56-18.47746-2.49281-.355174-16.12547-.688736-18-.44042zm-6.37189 38.024792c.98346.277692 2.81946 1.036372 4.08 1.685959 2.32585 1.198562 6.49189 4.141382 6.49189 4.585759 0 .429247-12.26489 13.404466-12.68004 13.414416-.21998.005-3.72096.30614-7.779955.66859-4.059.36246-7.37825.60115-7.37611.53042.002-.0707 2.15556-2.4435 4.78539-5.272823 4.14384-4.458194 4.72953-5.182224 4.39182-5.429162-.42032-.307349-.30421-.41964-6.89902 6.672206-1.56444 1.682349-2.87962 3.023649-2.92261 2.980649-.043-.043.15921-3.201461.44935-7.018819l.52752-6.940649 1.21183-1.288999c2.32158-2.469423 5.37471-4.285152 8.3419-4.961035 1.949695-.444116 5.035715-.287895 7.378035.373488zm33.49189-.362398c.924.193994 2.436.725743 3.36 1.181659 1.73756.85734 4.65024 3.094975 5.25726 4.03884.24153.375555.5026 2.554627.86299 7.203017.28419 3.665515.47587 6.787056.42598 6.936756-.0499.1497-3.3751-3.254621-7.38933-7.565155-6.38778-6.859289-7.34218-7.793751-7.64784-7.488087-.38588.38588-.94645-.259908 9.28102 10.691914 2.77357 2.97 5.00762 5.436828 4.96456 5.481828-.0431.045-3.55931-.22199-7.81387-.59333l-7.73557-.67516-5.84267-6.246668-5.84267-6.24667 1.02007-.910932c2.27905-2.035214 6.12634-4.269888 9.0018-5.22864 2.90263-.96781 5.39788-1.146326 8.09827-.579372zm12.20742 14.398944c.23243 3.168.48243 6.353998.55555 7.079998l.13294 1.32-.89571-.87175-.89571-.87176-.44083-5.968245c-.24245-3.282533-.49601-6.508243-.56346-7.168243l-.12264-1.2.90362.96.90362.96zm-64.225475.237754c-.51573 6.937184-.51619 6.940154-1.1819 7.671054l-.66597.73119-.007-.76999c-.004-.4235.21258-3.607363.48101-7.07526.47892-6.187562.49988-6.317628 1.1225-6.967502.34895-.364232.66436-.632343.7009-.5958.0365.03654-.16573 3.189379-.4495 7.006308zm70.963455 1.682246 1.28222 1.44.52288 6.923308c.28758 3.80782.48629 6.959897.44158 7.004607-.0447.0447-1.70271-1.66964-3.68444-3.809677l-3.60315-3.89098-.42365-5.873628c-.233-3.230496-.47862-6.41363-.5458-7.07363l-.12216-1.2 2.42515 2.52c1.33383 1.386 3.00215 3.168 3.70737 3.96zm-73.466455.848652c-.44962 5.826926-.60897 7.059246-.97265 7.521586-.23922.30412-1.486 1.67427-2.77061 3.04477-1.88914 2.015437-2.33568 2.385217-2.33568 1.934177 0-.63429.94081-12.946916 1.02501-13.414597.0562-.312226 5.23071-6.042751 5.46332-6.050381.0706-.0024-.11365 3.131686-.40939 6.964445zm-6.65843 7.111416-.53002 7.000057-.88082 1.03993c-.48445.57197-1.88181 2.09777-3.10524 3.39068l-2.22443 2.35074-3.15987-3.19074-3.15987-3.19074 6.75776-7.242097c3.71677-3.98316 6.77458-7.223166 6.79513-7.200006.0205.02316-.20114 3.192136-.49264 7.042176zm87.108825-.43274c.65247.77542.66715.86759 1.1475 7.207277.26763 3.532.41656 6.6043.33097 6.82735-.12394.32299-.51704.0262-1.93121-1.45821-3.41107-3.58043-3.05901-2.68319-3.54222-9.027357-.23277-3.05601-.4898-6.25839-.57118-7.11639l-.14796-1.56 2.02659 2.17094c1.11463 1.19401 2.324 2.52439 2.68751 2.95639zm-23.21791-2.87586 7.51143.67344.94416.92195c.51929.50707.9175.94862.8849.98122s-3.55979-.25114-7.8382-.63054l-7.77893-.68981-.97387-.97386c-.56987-.56987-.82599-.97012-.61739-.96485.19606.005 3.73661.31207 7.8679.68245zm-39.07143.22363c0 .10731-.3027.4851-.67267.83956-.66169.63393-.78408.65417-7.499995 1.23992-3.75503.32751-7.29367.65065-7.86363.71809l-1.0363.12262.5563-.7111c.30596-.39111.79769-.77935 1.09273-.86276.29504-.0834 3.80504-.45023 7.8-.81515 3.994955-.36491 7.344565-.6776 7.443565-.69487.099-.0173.18.0564.18.16369zm42.12 2.8131 7.2.61128 3.30749 3.41026c1.81912 1.875637 3.51052 3.683447 3.75867 4.017347l.45118.6071-7.47867-.65874c-4.11327-.36231-7.65269-.6895-7.86538-.72709-.2127-.0376-2.02995-1.82336-4.03834-3.968357-2.99684-3.20068-3.55151-3.90027-3.09329-3.90153.30709-.00096 3.79834.27353 7.75834.60973zm-44.7718.0518c-.006.099-1.22148 1.44551-2.699995 2.99224l-2.6882 2.812227-7.2.60928c-3.96.33511-7.50581.66167-7.87958.72568l-.67958.1164.64072-.76145c.3524-.4188 1.63021-1.8125 2.83958-3.097097l2.19886-2.33564 6.6-.59247c7.269445-.65256 8.885825-.73807 8.868195-.46917zm71.71827 7.037067.74787.85707-2.50717 2.49864c-2.38934 2.38122-2.5074 2.46501-2.51216 1.78293-.003-.39364-.16251-2.60571-.35501-4.91571-.52809-6.336967-.71364-5.984357 1.75929-3.343337 1.16562 1.244837 2.45584 2.649017 2.86718 3.120407zm-78.186465-.13414c0 .14281-13.9212 15.08705-14.13876 15.1778-.0801.0334-1.81042-1.6067-3.8452-3.64467l-3.69961-3.70539.92662-1.03533c.50964-.56944 1.85763-2.03167 2.99553-3.2494l2.0689-2.21406 7.66626-.69608c4.21644-.38285 7.74726-.70952 7.84626-.72594.099-.0164.18.0255.18.0931zm60.119995 2.16409 6.96.59734 2.43828 2.57782c1.83658 1.94169 2.36961 2.64508 2.16 2.85037-.20784.20357-2.14143.10643-7.63907-.38376l-7.3608-.65631-1.90094-2.01624c-1.04553-1.10893-2.25649-2.42481-2.69103-2.92416l-.79008-.90793.93182.13276c.5125.073 4.06382.40157 7.89182.73011zm-87.839255 4.19372c2.9856 2.99224 3.09971 3.14294 2.77141 3.66-1.74473 2.74791-2.28999 4.72949-2.09653 7.61926.17543 2.62055 1.2666 5.70501 2.8018 7.92.33361.48133.51772 1.92912.93085 7.32.28325 3.696.50984 6.936.50352 7.2-.01.39528-.16858.30782-.90163-.49552-.48959-.53654-3.81229-4.11329-7.38378-7.94832-6.8583-7.36439-7.71843-8.52808-8.62603-11.67042-.8011-2.77362-.38102-6.1545 1.02578-8.25577.70198-1.0485 7.46363-8.46997 7.71694-8.46997.0791 0 1.54507 1.40433 3.25767 3.12074zm112.376455.68559c2.5419 2.72815 3.53388 3.98318 4.22074 5.34 2.16767 4.28194 2.16031 8.12183-.0217 11.33708-.83993 1.23765-23.0614 25.2379-23.2145 25.07276-.0388-.0419.17043-3.22427.46503-7.07194l.53566-6.99577 4.05879-4.35359c5.97648-6.41057 6.70415-7.73 6.69239-12.13487-.007-2.6682-.32392-3.89949-1.74677-6.78932l-.8613-1.74932 3.10378-3.11068c1.70707-1.71087 3.18056-3.11068 3.27441-3.11068.0939 0 1.66592 1.60485 3.49349 3.56633zm-77.99183.11325c-.88804.81423-3.768725 3.42442-6.401505 5.80042-2.63279 2.376-4.76821 4.39715-4.74538 4.49144.0228.0943 2.84952 2.72683 6.28152 5.8501 3.431995 3.12327 6.263345 5.74612 6.291875 5.82856.0914.264-.61254 1.04319-.86269.95497-.39381-.13888-13.959505-12.53781-13.891545-12.69675.0343-.0802 3.1813-2.98245 6.99333-6.44943l6.930975-6.30361.50902.52194.50903.52194zm19.86139-1.99211c.3822.42232.39519.53176.0972.81889-.18918.18228-3.04396 2.77872-6.34396 5.76987s-6.02968 5.51968-6.06594 5.61894c-.0363.0993 2.80898 2.80522 6.32279 6.0132l6.38873 5.83271-.48269.48269c-.4744.4744-.49252.47491-1.05545.0295-1.64096-1.2985-13.39403-12.19232-13.3357-12.36074.0839-.24224 13.69181-12.66459 13.89106-12.68084.0785-.006.34133.20771.58396.47582zm12.24148.002c.53145.58725 1.29741-.21943-6.48824 6.83316-3.168 2.86971-5.78891 5.29092-5.82425 5.38046-.0529.13411 11.10586 10.484 12.37767 11.48042.35115.27512.33951.35059-.12586.81596l-.51281.51281-.68158-.57596c-2.40461-2.03194-13.27419-12.08824-13.21974-12.23061.0886-.23172 13.70605-12.67549 13.88937-12.69227.0785-.007.34199.20702.58544.47603zm3.37767-.0691c.17535.231.32226.49743.32646.59207.004.0946-2.8633 2.78744-6.37222 5.984-6.11904 5.57434-6.36035 5.8273-5.90309 6.18793.26221.2068 3.18689 2.85178 6.49928 5.87773 5.71859 5.22408 6.00251 5.52385 5.62589 5.94-.21814.24101-.49634.43823-.6182.43823-.12187 0-3.21013-2.71772-6.86281-6.03938-3.65267-3.32166-6.78528-6.16958-6.96136-6.32871-.25875-.23385 1.02776-1.51497 6.70872-6.68062 3.86588-3.51521 7.07603-6.39129 7.13369-6.39129.0576 0 .24828.189.42364.42zm23.44251 3.80993 4.98841.42653-3.06841 3.0835-3.06842 3.0835-1.86266-1.99173c-1.02446-1.09545-2.53646-2.73884-3.36-3.65198l-1.49734-1.66026 1.44.14195c.792.0781 3.68479.33389 6.42842.56849zm-73.066995 17.96861c-.0581.0581-3.54808-.19922-7.75542-.57192-8.76694-.77661-7.95235-.47251-9.39309-3.50666-2.0014-4.21485-2.0162-7.91843-.0454-11.36298l.74923-1.30953 8.27521 8.32269c4.55136 4.57747 8.22764 8.37026 8.16949 8.4284zm82.479385-14.51697c1.17389 2.33104 1.63855 4.46551 1.48403 6.81713-.10442 1.58915-.28199 2.21526-1.08908 3.84-.82129 1.65332-1.59112 2.60874-5.19002 6.44126-2.68559 2.85992-4.39643 4.5-4.69417 4.5-.25767 0-3.56037.27578-7.33934.61285-3.77898.33707-7.06468.58007-7.30156.54-.41926-.0709 2.84255-3.69217 12.23736-13.58591 2.97864-3.13682 3.04434-3.18838 3.73052-2.92749.69814.26543.69826.26532.24335-.23735-.45379-.50144-.44465-.5134 3.12849-4.0925 1.97098-1.97428 3.6646-3.5896 3.76359-3.5896.099 0 .56107.75672 1.02683 1.68161zm-89.040805 15.00488c3.828.33389 7.176.65531 7.44.71427.264.059 1.61202 1.3249 2.99559 2.81322 2.0576 2.21335 2.4271 2.7188 2.02953 2.77622-.26733.0386-3.58839-.20439-7.38014-.54-3.79174-.33561-7.05647-.6102-7.25496-.6102-.32903 0-3.44084-3.08598-5.02167-4.98-.56863-.6813-.59517-.78004-.20968-.78029.24273-.00016 3.57333.27289 7.40133.60678zm-3.49685 6.11351c.13102.462.40679 3.324.61284 6.36.20604 3.036.43562 6.006.51018 6.6l.13555 1.08-2.23181-2.3724c-3.46616-3.68452-3.10736-2.76185-3.59103-9.23453-.23315-3.12019-.48693-6.32089-.56394-7.11268l-.14004-1.4396 2.51502 2.6396c1.66309 1.74547 2.59572 2.92415 2.75323 3.47961zm10.93685.83644 6.72.57918 1.2 1.30066c.66.71536 2.3215 2.5055 3.692205 3.97807l2.49221 2.67741-1.29221-.13792c-.71071-.0759-4.262205-.3961-7.892205-.71167l-6.6-.57376-2.46715-2.5942c-1.35694-1.42682-3.01965-3.22102-3.69492-3.98711l-1.22777-1.3929 1.17492.14153c.6462.0778 4.19892.40216 7.89492.72071zm-4.59616 5.49739 2.12384 2.29372.53751 7.02623c.29564 3.86442.51405 7.05808.48536 7.09702-.0287.0389-1.6853-1.6777-3.68135-3.81476-2.29292-2.45489-3.6296-4.0716-3.63029-4.3908-.00048-.27788-.21611-3.20524-.47891-6.50524s-.47332-6.27-.46781-6.6c.0109-.65304-.30021-.9509 5.11165 4.89383zm75.028075-3.51383c-.70273.759-2.00531 2.14075-2.8946 3.07055l-1.6169 1.69055-7.72397.66569c-4.24818.36613-7.75817.63138-7.79998.58945-.0418-.0419 1.18388-1.40949 2.72376-3.03901l2.79977-2.96276 7.32-.66583c4.026-.36621 7.57867-.67997 7.89481-.69724.5159-.0282.44385.11006-.70289 1.3486zm1.19148 6.93786-.53231 6.92214-2.10281 2.28c-1.15654 1.254-2.42471 2.5854-2.81816 2.95867l-.71537.67868.10123-1.03868c.0557-.57127.31072-3.77228.56676-7.11337l.46554-6.0747 2.68556-2.8656c1.47706-1.57608 2.72973-2.82143 2.78372-2.76744.054.054-.14138 3.21312-.43416 7.0203zm-7.4274-.30089-.836.81698-7.32.62724c-4.026.34498-7.53392.62535-7.79538.62303-.41351-.004-.37495-.10466.29619-.7758l.77159-.77159 7.1438-.63921c3.92909-.35156 7.466-.65235 7.8598-.66841l.716-.0292zm-56.398805.28588 7.082805.62285.9494.93008.9494.93007-.8294-.11273c-.45617-.062-4.0154-.38746-7.909395-.72324l-7.08-.6105-.836-.82969-.836-.82969h.71318c.39225 0 3.90045.28028 7.79601.62285zm57.126855 7.57415-.5033 6.563-.73854.72-.73853.72.13314-1.32c.0732-.726.3226-3.9013.55414-7.05623.40407-5.50564.44567-5.76565 1.03501-6.46827.57201-.68195.61907-.69747.68771-.22677.0405.2779-.15281 3.45863-.42963 7.06827zm-64.319945.10137c.25112 3.2899.51254 6.51744.58094 7.17233l.12435 1.19069-.81751-.83069-.81752-.8307-.49718-6.40427c-.27345-3.52235-.49718-6.70627-.49718-7.07539v-.67111l.73376.73376.73376.73376zm61.635895-5.91961c-.044.12031-2.16884 2.44677-4.72188 5.1699-3.00836 3.20879-4.5946 5.07434-4.50753 5.30124.0739.19255.23561.3501.35938.3501s2.30109-2.21807 4.83849-4.92904 4.6501-4.8924 4.69489-4.84761c.0448.0448-.16305 3.24991-.46187 7.1225l-.54329 7.04107-1.55224 1.4706c-5.51757 5.22737-11.55664 6.1731-18.60984 2.91432-1.70461-.78757-5.1965-3.06683-6.73603-4.3968l-.75992-.65648 4.57284-4.91928c2.51507-2.7056 5.32053-5.70944 6.23435-6.67519l1.6615-1.7559 7.36557-.67457c8.99189-.8235 8.26161-.77745 8.16558-.51486zm-51.817365 1.11142c3.884445.33753 7.187625.68931 7.340395.78175.15277.0924 2.89304 2.97607 6.08949 6.40807l5.81173 6.24-.91212.78894c-.50167.43392-1.77613 1.36691-2.83213 2.07331-7.05831 4.72158-13.26404 5.35756-18.938065 1.94084-1.53064-.92171-4.11427-3.07347-4.45519-3.7105-.22184-.41451-1.3015-13.44123-1.16296-14.03179.0419-.17872 3.42422 3.27419 7.51622 7.67311 6.484215 6.97058 7.484855 7.95389 7.789215 7.65428.30499-.30024.25671-.44284-.38122-1.12598-7.343435-7.86386-14.247995-15.3165-14.247995-15.37902 0-.044.297-.0456.66-.003.363.0422 3.83819.35284 7.72263.69036zm-49.06263-114.275328c-1.69023.448963-2.41083.765583-3.55815 1.563405-1.16151.807677-6.78892 5.804758-6.87087 6.101249-.0304.109908 2.51972 3.066106 5.66689 6.569328 3.14718 3.503223 5.94989 6.647021 6.22826 6.98622l.50613.616726 3.49616-3.17346c3.66535-3.327024 4.66994-4.56067 5.37686-6.60277.6134-1.771985.54339-4.438147-.16481-6.275875-.76693-1.990162-3.39069-4.633404-5.30771-5.34715-1.78866-.665949-3.87386-.835814-5.37276-.437673zm3.86427 3.722361c1.35573.615692 2.68402 2.011498 3.39771 3.570404.49161 1.073822.57715 1.555737.47538 2.678128-.2033 2.242056-.65132 2.891273-4.29167 6.219058l-.87432.799248-4.04568-4.497542c-2.22513-2.473649-4.04569-4.63148-4.04569-4.795176 0-.451628 3.46848-3.479211 4.56-3.980355 1.27386-.584858 3.52913-.581942 4.82427.0062zm135.541895-1.585207-.49169 1.512331 1.53752.291665c2.06168.391097 4.06751 1.442302 5.29679 2.775915.82486.894861 1.01121 1.268085 1.01121 2.025199 0 .635249-.15753 1.070729-.49917 1.379909-.88038.796728-2.02805.57936-5.08014-.962177-4.17601-2.109202-6.13937-2.115159-8.0665-.02447-1.05999 1.149955-1.35672 2.133178-1.18385 3.922776.16156 1.672647.82638 2.866227 2.57764 4.627798 1.65927 1.669044 4.21805 3.126014 5.59708 3.186977.66331.02932.75252-.0685 1.17079-1.283938.24903-.723624.40955-1.425624.35671-1.56-.0528-.134376-.67577-.447317-1.38431-.695424-3.77832-1.323041-5.95713-4.12578-4.2696-5.492256.8216-.665294 1.84396-.45431 4.73469.977102 4.08719 2.02387 5.97348 2.138739 7.86395.478882 3.19442-2.804734 2.03344-7.662288-2.56528-10.733196-1.53564-1.025462-4.05609-1.939428-5.34836-1.939428-.72801 0-.79004.0746-1.25748 1.512331zm22.05028 108.450994c-1.4672 3.98106-3.44171 10.34677-3.26341 10.52106.24849.24291 17.40727 6.0353 17.52615 5.91642.0456-.0456.34391-.85029.66292-1.7882l.58-1.70529-7.00105-2.32608c-3.85058-1.27934-7.18682-2.42156-7.41386-2.53825-.37432-.1924-.28197-.59126.9905-4.27809l1.40332-4.06592-1.23051-.40444c-.67678-.22245-1.35494-.45022-1.50703-.50616-.15657-.0576-.48061.45207-.74703 1.17495zm-189.848195 6.78495c-4.65947 1.88937-8.51266 3.47613-8.56265 3.52612-.05.05 1.06871 2.95171 2.48599 6.44825 1.41729 3.49654 2.64674 6.54282 2.73211 6.76951.14423.38296.21971.38519 1.06576.0315.5008-.20937 1.14796-.47105 1.43813-.5815.51788-.19711.49054-.29257-1.4834-5.18125-1.10604-2.73924-1.96863-5.04897-1.91686-5.13273.12792-.20698 4.18103-1.7646 4.27806-1.64407.0425.0528.86211 2.06692 1.82142 4.47592.95932 2.409 1.81165 4.38 1.89406 4.38.3329 0 2.67913-1.05966 2.67913-1.21001 0-.0889-.80654-2.12801-1.79233-4.53129l-1.79233-4.3696.77233-.32046c.42479-.17625 1.43752-.58974 2.25052-.91887l1.47818-.59841 2.09872 5.22568 2.09872 5.22569 1.2231-.49169c.6727-.27043 1.3046-.56045 1.40422-.64449.13632-.115-2.75159-7.58572-5.26753-13.62655-.0687-.165-.1944-.29256-.27927-.28348-.0849.009-3.96662 1.56238-8.62608 3.45176zm185.227145 7.14734c-.45947.8226-.87178 1.57973-.91624 1.68253-.0445.1028.47963.94295 1.16467 1.86701.85274 1.15029 1.19563 1.81172 1.08735 2.09747-.087.22955-1.15109 2.184-2.36467 4.34321l-2.20651 3.92584-2.19209-.15827-2.19208-.15827-.97576 1.69243c-.53667.93084-.90023 1.6926-.80791 1.69281.0923.00021 4.36633.32421 9.49781.72s9.7432.71962 10.24825.71962c.88104 0 .95379-.0635 1.79367-1.56533.50287-.89922.81295-1.728.72868-1.9476-.20082-.52334-11.70871-16.40707-11.88706-16.40707-.0785 0-.51864.67303-.97811 1.49562zm6.13905 11.48354c1.40097 1.85854 2.49869 3.4277 2.43937 3.48702-.0593.0593-1.82369-.0569-3.92084-.25833-2.09714-.20141-3.9559-.36657-4.13058-.36702-.17468-.00048-.28268-.14137-.24-.31315.079-.31784 3.15324-5.92054 3.25121-5.92515.0295-.001 1.19986 1.51809 2.60084 3.37663zm-183.494445-.33701c-4.158 2.8378-7.54868 5.29016-7.53484 5.44969.0505.58232 1.83622 2.79373 2.3383 2.89573.2841.0577 3.64854.33859 7.47654.62416 3.828.28558 7.26715.59126 7.64254.6793.63276.14839.30523.41354-4.48958 3.63452-2.84467 1.91095-5.17681 3.56528-5.18254 3.6763-.0213.41261 1.98087 3.02242 2.21004 2.88078 1.00603-.62175 14.76361-10.02017 14.99295-10.24235.40797-.39522-1.47219-3.28028-2.13771-3.28028-.71014 0-15.40538-1.20086-15.65918-1.27963-.12292-.0382 1.98308-1.56113 4.68-3.38441 2.69691-1.82328 5.06076-3.46288 5.25299-3.64358.30339-.28519.22191-.50896-.61768-1.69635-.53195-.7523-1.06723-1.3916-1.18951-1.42067-.12227-.0291-3.62432 2.26899-7.78232 5.10679zm163.829145 10.01613c-.61003.71405-1.10915 1.40296-1.10915 1.53091s2.5843 2.34957 5.74288 4.93694 5.81478 4.82064 5.90266 4.96283c.0879.1422-.70782 1.31862-1.76822 2.61427l-1.92801 2.35573 1.22631.99756c.67447.54866 1.31131.91255 1.4152.80866.1039-.1039 2.45655-2.94206 5.22813-6.30704l5.03922-6.11814-.88908-.78934c-1.59694-1.41776-1.45484-1.46394-3.62527 1.17788l-1.97462 2.40346-1.2446-1.05198c-2.78523-2.35418-10.70355-8.82002-10.80133-8.82002-.0577 0-.60408.58422-1.21412 1.29828zm-148.671945 10.22623c-5.06154 2.22261-9.25126 4.08956-9.31049 4.14879-.0592.0592.58268.71379 1.42646 1.45459l1.53414 1.34691 7.02949-3.2374c3.86622-1.78057 7.11008-3.2374 7.20859-3.2374.0985 0-1.05505 3.1047-2.56346 6.89932-1.50841 3.79463-2.79644 7.11563-2.86229 7.38-.0874.35076.23815.83365 1.20438 1.78662.72826.71826 1.36645 1.25826 1.4182 1.2.0517-.0583 1.68616-4.35694 3.63203-9.5526l3.53796-9.44667-1.39859-1.41333c-.76923-.77734-1.45597-1.40357-1.5261-1.39163-.0701.0119-4.26878 1.8402-9.33032 4.0628zm140.759125-1.323-1.35633 1.10486v8.28323 8.28322l-3.75345-4.63641c-2.0644-2.55003-3.89146-4.78561-4.06012-4.96796-.25731-.27818-.54047-.14785-1.75933.80974-1.25485.98587-1.41279 1.1964-1.15988 1.54604.79843 1.10381 11.51447 14.17577 11.62092 14.17577.0677 0 .6786-.44218 1.3575-.98262l1.23436-.98263.12-8.31737.12-8.31738 3.91819 4.8c2.155 2.64 4.045 4.8252 4.2 4.85599.15499.0308.84859-.4552 1.54131-1.08l1.25951-1.13599-5.75084-7.05933c-3.16296-3.88263-5.84638-7.15488-5.96317-7.27167-.12312-.12312-.78223.25188-1.56867.89251zm-126.258765 14.06632c-5.10762 7.19216-5.43146 7.71019-5.01875 8.02797.90215.69463 2.74191 1.84287 2.81207 1.75507.51969-.65025 10.70912-15.10848 10.70912-15.19564 0-.10854-2.14565-1.74486-2.78126-2.12105-.15413-.0912-2.50006 2.9979-5.72118 7.53365zm7.90504 5.6511c-2.32773 4.56909-4.14456 8.38909-4.03741 8.48888.42879.39938 8.89853 4.52113 9.79481 4.76659 2.52541.69165 5.41716-.045 6.68089-1.70179 1.85883-2.43706 2.21147-5.18876.95113-7.42196l-.73798-1.30763 3.20956-1.67151c1.76526-.91933 3.2111-1.73284 3.21298-1.8078.002-.075-.79215-.55677-1.76451-1.07069l-1.76794-.93439-2.84801 1.7048-2.84802 1.70479-2.34405-1.1763c-1.28923-.64696-2.34405-1.2466-2.34405-1.33253 0-.0859.54-1.15793 1.2-2.38223s1.2-2.28565 1.2-2.35856c0-.0729-.74817-.50934-1.66259-.96983l-1.66259-.83727zm6.62233 2.62449c2.75151 1.40743 3.6846 2.26425 3.95878 3.63514.21225 1.06122-.28483 2.3249-1.24671 3.16944-.70614.62-1.02927.732-2.1118.732-1.0738 0-1.69198-.21029-3.86717-1.31552-1.42398-.72353-2.6327-1.35915-2.68603-1.41249-.15169-.15168 2.89415-6.15199 3.12284-6.15199.11205 0 1.38559.60454 2.83009 1.34342zm90.164145-7.36872c-3.526 1.80792-6.48271 3.35893-6.57046 3.44668-.1211.1211 7.79569 16.23383 8.21414 16.71792.0859.0994 12.51541-6.13264 12.88129-6.45855.10672-.0951-.10336-.77923-.46685-1.52037l-.6609-1.34754-4.68267 2.40025c-2.57547 1.32014-4.81878 2.34803-4.98514 2.28419-.16636-.0638-.73881-.9839-1.27211-2.04459l-.96964-1.92853 4.32163-2.16334c2.3769-1.18984 4.32163-2.21439 4.32163-2.27677 0-.0624-.29151-.7078-.64781-1.43427l-.64781-1.32086-4.16513 2.15554c-2.29082 1.18555-4.26809 2.15554-4.39394 2.15554-.25253 0-2.30892-4.00495-2.13432-4.15674.06-.0521 2.26901-1.20726 4.90901-2.56698 2.64-1.35971 4.83214-2.49626 4.87141-2.52566.114-.0853-1.23752-2.75316-1.38141-2.72684-.0715.0131-3.01491 1.503-6.54092 3.31092zm-12.34266 5.70999c-1.16825.27393-1.45366.42943-1.37744.75042 2.22085 9.35359 2.92101 12.4149 2.85463 12.48128-.0448.0448-1.93823-2.08212-4.20765-4.72646-4.01068-4.67324-4.14737-4.80383-4.8811-4.66321-1.76448.33816-1.61878.0436-3.14002 6.34726-.77594 3.21531-1.48764 5.99645-1.58155 6.18032-.14686.28751-.82156-2.29944-2.82569-10.8343-.42569-1.81289-.41024-1.80516-2.5676-1.28407-.66.15942-1.1863.39205-1.16957.51696.0607.45327 4.22939 17.98917 4.29379 18.06233.0364.0414 1.01617-.17464 2.17723-.48l2.11103-.55522 1.60824-6.43448c.88453-3.53897 1.6605-6.48674 1.72438-6.55062.0639-.0639 2.08244 2.15665 4.48572 4.93449 2.40327 2.77783 4.4955 5.05199 4.64938 5.05369.70163.008 3.82324-.85001 3.90611-1.07328.14166-.38162-4.12517-17.98029-4.37103-18.02847-.11841-.0232-.87839.11331-1.68886.30336zm-60.120925 1.5912c-2.74906.93703-4.61841 2.58875-5.7629 5.09195-.44815.98018-.54661 1.61891-.55378 3.59216-.008 2.17443.0573 2.53534.6933 3.84.87413 1.79305 2.94775 3.86271 4.74717 4.73811 5.84334 2.84271 12.215995 1.20105 14.713725-3.79039 1.79461-3.58635.8959-8.07029-2.1812-10.88259-3.120985-2.8524-7.821185-3.89647-11.656315-2.58924zm7.15809 3.43116c4.104095 1.95436 5.029035 7.31893 1.768365 10.25627-1.410705 1.27082-2.470475 1.67439-4.451945 1.69532-6.71659.071-9.67204-8.10724-4.19899-11.61929 2.05177-1.31661 4.56114-1.43777 6.88257-.3323zm12.208445-.32705c-.0511.165-.1489 4.431-.21733 9.48l-.12443 9.18 1.84487-.0133 1.84486-.0133 5.15636-6.22673c2.83599-3.42471 5.21199-6.22683 5.28-6.22695.068-.00011.0901 2.86189.0491 6.36l-.0745 6.36021h1.77594 1.77593l.15813-6.66c.087-3.663.15834-7.86404.15859-9.33564l.00048-2.67564-1.7046-.17119c-1.30389-.13095-1.77593-.0944-2.00805.15564-.16691.17976-2.49172 2.97283-5.16626 6.20683-2.67453 3.234-4.97063 5.988-5.10245 6.12-.15955.15978-.18809-1.89458-.0854-6.14612l.1543-6.38612-1.2638-.15179c-1.84398-.22149-2.34773-.19189-2.45176.14403z" fill="#2a661a" stroke-width=".24" transform="matrix(1.3333333 0 0 -1.3333333 -17.387922 310.68874)"/></svg>